<svg id="Capa_1" enable-background="new 0 0 512 512" height="512" viewBox="0 0 512 512" width="512" xmlns="http://www.w3.org/2000/svg"><path d="m123.1 250.041-76.66 76.631c-10.63 10.622-27.85 10.622-38.47 0-5.31-5.31-7.97-12.271-7.97-19.233 0-6.951 2.66-13.912 7.97-19.223l76.66-76.621 19.2 19.193z" fill="#07485e"/><path d="m219.97 366.488v68.01c0 4.151-3.36 7.501-7.5 7.501h-75.26c-4.15 0-7.5-3.35-7.5-7.501v-68.01c0-13.672 11.12-24.804 24.79-24.804h40.67c13.67 0 24.8 11.132 24.8 24.804z" fill="#7ed6f4"/><path d="m347.23 306.509v127.989c0 4.151-3.35 7.501-7.5 7.501h-75.26c-4.14 0-7.5-3.35-7.5-7.501v-127.989c0-13.672 11.12-24.804 24.8-24.804h40.66c13.68.001 24.8 11.132 24.8 24.804z" fill="#9adb05"/><path d="m474.5 141.085v293.412c0 4.151-3.36 7.501-7.5 7.501h-75.27c-4.14 0-7.5-3.35-7.5-7.501v-293.412c0-13.682 11.13-24.804 24.8-24.804h40.67c13.67.001 24.8 11.122 24.8 24.804z" fill="#ff7127"/><path d="m474.5 141.085v293.412c0 4.151-3.36 7.501-7.5 7.501h-37.63v-325.716h20.33c13.67 0 24.8 11.121 24.8 24.803z" fill="#ff1f3e"/><path d="m219.97 366.488v68.01c0 4.151-3.36 7.501-7.5 7.501h-37.63v-100.315h20.33c13.67 0 24.8 11.132 24.8 24.804z" fill="#6aa7ff"/><path d="m347.23 306.509v127.989c0 4.151-3.35 7.501-7.5 7.501h-37.63v-160.293h20.33c13.68 0 24.8 11.131 24.8 24.803z" fill="#00ca76"/><path d="m512 434.498c0 8.291-6.72 15.002-15 15.002h-389.79c-8.29 0-15-6.711-15-15.002 0-8.281 6.71-15.002 15-15.002h389.79c8.28 0 15 6.721 15 15.002z" fill="#07485e"/><path d="m244.89 168.949c0 43.706-35.43 79.141-79.13 79.141-21.88 0-41.68-8.881-56-23.233-14.29-14.322-23.13-34.085-23.13-55.908 0-43.706 35.43-79.141 79.13-79.141 21.82 0 41.58 8.841 55.9 23.133 14.35 14.322 23.23 34.125 23.23 56.008z" fill="#fff"/><path d="m244.89 168.949c0 43.706-35.43 79.141-79.13 79.141-21.88 0-41.68-8.881-56-23.233l111.9-111.916c14.35 14.322 23.23 34.125 23.23 56.008z" fill="#f3eee9"/><path d="m103.83 230.788 19.27 19.253-76.66 76.631c-10.63 10.622-27.85 10.622-38.47 0z" fill="#002438"/><path d="m241.09 93.638c-.02-.02-.05-.05-.07-.07-41.55-41.446-109.07-41.426-150.59.07-20.12 20.113-31.2 46.857-31.2 75.311 0 28.434 11.07 55.158 31.17 75.271.01.01.02.02.03.03 20.77 20.763 48.05 31.145 75.33 31.145s54.56-10.382 75.33-31.145c20.12-20.113 31.21-46.857 31.21-75.301 0-28.454-11.09-55.198-31.21-75.311zm-37 113.637c-10.57 10.561-24.45 15.842-38.33 15.842s-27.76-5.281-38.33-15.842l-.04-.04c-10.21-10.241-15.84-23.834-15.84-38.286 0-14.482 5.64-28.094 15.88-38.325 21.12-21.103 55.47-21.123 76.6-.06l.06.06c10.24 10.231 15.88 23.843 15.88 38.325 0 14.472-5.64 28.084-15.88 38.326z" fill="#7ed6f4"/><path d="m272.3 168.949c0 28.444-11.09 55.188-31.21 75.301-20.77 20.763-48.05 31.145-75.33 31.145s-54.56-10.382-75.33-31.145c-.01-.01-.02-.02-.03-.03l36.99-36.985.04.04c10.57 10.561 24.45 15.842 38.33 15.842s27.76-5.281 38.33-15.842c10.24-10.241 15.88-23.854 15.88-38.326 0-14.482-5.64-28.094-15.88-38.325-.02-.02-.04-.04-.06-.06l36.99-36.996c.02.02.05.05.07.07 20.12 20.113 31.21 46.857 31.21 75.311z" fill="#6aa7ff"/><path d="m512 434.498c0 8.291-6.72 15.002-15 15.002h-194.9v-30.004h194.9c8.28 0 15 6.721 15 15.002z" fill="#002438"/></svg>